<svg width="22" height="22" viewBox="0 0 22 22" fill="none" xmlns="http://www.w3.org/2000/svg">
<path fill-rule="evenodd" clip-rule="evenodd" d="M12.5714 4.71429C12.5714 5.96459 12.0747 7.16369 11.1906 8.04779C10.3065 8.93189 9.10745 9.42857 7.85714 9.42857C6.60684 9.42857 5.40774 8.93189 4.52364 8.04779C3.63954 7.16369 3.14286 5.96459 3.14286 4.71429C3.14286 3.46398 3.63954 2.26488 4.52364 1.38078C5.40774 0.496682 6.60684 0 7.85714 0C9.10745 0 10.3065 0.496682 11.1906 1.38078C12.0747 2.26488 12.5714 3.46398 12.5714 4.71429ZM16.8929 11.7857C17.2054 11.7857 17.5052 11.9099 17.7262 12.1309C17.9473 12.3519 18.0714 12.6517 18.0714 12.9643V15.7143H20.8214C21.134 15.7143 21.4338 15.8385 21.6548 16.0595C21.8758 16.2805 22 16.5803 22 16.8929C22 17.2054 21.8758 17.5052 21.6548 17.7262C21.4338 17.9473 21.134 18.0714 20.8214 18.0714H18.0714V20.8214C18.0714 21.134 17.9473 21.4338 17.7262 21.6548C17.5052 21.8758 17.2054 22 16.8929 22C16.5803 22 16.2805 21.8758 16.0595 21.6548C15.8385 21.4338 15.7143 21.134 15.7143 20.8214V18.0714H12.9643C12.6517 18.0714 12.3519 17.9473 12.1309 17.7262C11.9099 17.5052 11.7857 17.2054 11.7857 16.8929C11.7857 16.5803 11.9099 16.2805 12.1309 16.0595C12.3519 15.8385 12.6517 15.7143 12.9643 15.7143H15.7143V12.9643C15.7143 12.6517 15.8385 12.3519 16.0595 12.1309C16.2805 11.9099 16.5803 11.7857 16.8929 11.7857ZM7.85714 11C10.2033 11 12.3106 12.0293 13.75 13.6604V13.75H12.9643C12.2673 13.7494 11.5899 13.9805 11.0386 14.4069C10.4873 14.8334 10.0934 15.431 9.91881 16.1058C9.74427 16.7806 9.79898 17.4943 10.0744 18.1345C10.3497 18.7748 10.8301 19.3054 11.44 19.6429H0.785714C0.57733 19.6429 0.37748 19.5601 0.23013 19.4127C0.0827804 19.2654 0 19.0655 0 18.8571C0 16.7733 0.827804 14.7748 2.3013 13.3013C3.7748 11.8278 5.7733 11 7.85714 11Z" fill="#6B7280"/>
</svg>
