<svg width="27" height="24" viewBox="0 0 27 24" fill="none" xmlns="http://www.w3.org/2000/svg">
<path d="M0.75 20.7502V6.43631C0.75 4.63129 0.75 3.72878 1.05375 3.02002C1.43297 2.13683 2.13682 1.43297 3.02 1.05375C3.72876 0.75 4.62251 0.75 6.43751 0.75H7.05501C7.42837 0.750044 7.79698 0.833713 8.13377 0.994863C8.47056 1.15601 8.76698 1.39055 9.00127 1.68126L11.2725 4.50004M11.2725 4.50004H18.25C20 4.50004 20.875 4.50004 21.5438 4.84004C22.1316 5.13991 22.6095 5.61818 22.9088 6.2063C23.25 6.87506 23.25 7.75007 23.25 9.50009V10.7501M11.2725 4.50004H7.00001" stroke="#6B7280" stroke-width="1.5" stroke-linecap="round" stroke-linejoin="round"/>
<path d="M2.19748 16.3926L2.56998 15.465C3.48748 13.1813 3.94623 12.04 4.90248 11.395C5.85873 10.75 7.09499 10.75 9.56499 10.75H19.64C23 10.75 24.6813 10.75 25.4275 11.8488C26.175 12.9475 25.55 14.5 24.3025 17.6076L23.93 18.5351C23.0125 20.8188 22.5538 21.9601 21.5975 22.6051C20.6413 23.2501 19.405 23.2501 16.935 23.2501H6.85999C3.49998 23.2501 1.81872 23.2501 1.07247 22.1514C0.324971 21.0539 0.949973 19.5001 2.19748 16.3926Z" stroke="#6B7280" stroke-width="1.5" stroke-linejoin="round"/>
</svg>
